<?xml version="1.0" encoding="UTF-8" standalone="no"?>
<svg
   viewBox="0 0 3840 523"
   version="1.1"
   id="svg4"
   sodipodi:docname="wave-cld.svg"
   inkscape:version="1.2.1 (9c6d41e410, 2022-07-14)"
   width="3840"
   height="523"
   xmlns:inkscape="http://www.inkscape.org/namespaces/inkscape"
   xmlns:sodipodi="http://sodipodi.sourceforge.net/DTD/sodipodi-0.dtd"
   xmlns="http://www.w3.org/2000/svg"
   xmlns:svg="http://www.w3.org/2000/svg">
  <defs
     id="defs8" />
  <sodipodi:namedview
     id="namedview6"
     pagecolor="#ffffff"
     bordercolor="#000000"
     borderopacity="0.25"
     inkscape:showpageshadow="2"
     inkscape:pageopacity="0.0"
     inkscape:pagecheckerboard="0"
     inkscape:deskcolor="#d1d1d1"
     showgrid="false"
     inkscape:zoom="0.59416612"
     inkscape:cx="1135.2044"
     inkscape:cy="254.9792"
     inkscape:window-width="1366"
     inkscape:window-height="706"
     inkscape:window-x="-8"
     inkscape:window-y="-8"
     inkscape:window-maximized="1"
     inkscape:current-layer="svg4" />
  <path
     fill="#0099ff"
     fill-opacity="1"
     d="m 3839.0775,498.81281 -94.9094,-13.923 c -91.9481,-13.4886 -134.2401,-80.415 -240.6125,-75.1995 -106.3723,5.609 -212.7447,78.4281 -319.117,73.5079 -106.3724,-4.9202 -212.7448,-89.5478 -319.1171,-115.4281 -106.3724,-26.274 -212.7448,5.2154 -319.1171,41.9202 -106.3723,37.0984 -222.2391,53.8352 -328.6116,48.915 -106.3722,-4.9202 -203.2502,-33.4656 -309.6225,-43.6012 -106.3725,-10.5293 -212.7448,20.9601 -319.1171,26.1755 -106.3725,5.6091 -212.7447,-16.0399 -319.1169,0 -106.3726,15.4495 -212.7449,58.048 -319.11721,73.4974 -106.3725,16.0399 -212.7447,4.9308 -319.1171,-10.5187 -106.3722,-16.0399 -212.7449,-25.8803 -319.1171,-41.9202 -106.3722,-15.4494 -212.744795,-37.0984 -265.930995,-47.234 L -6.7321051,404.47481 V 3.5926051 C 1760.4553,263.16641 2763.5409,-62.443095 3845.0512,101.30681 Z"
     id="path2"
     style="fill:#8b39ef;fill-opacity:1;stroke-width:1.61766"
     sodipodi:nodetypes="cscsccsccccccccccc" />
</svg>
