<?xml version="1.0" encoding="UTF-8" standalone="no"?>
<svg
   viewBox="0 0 3840 323"
   version="1.1"
   id="svg4"
   sodipodi:docname="wave-combo-light.svg"
   inkscape:version="1.2.1 (9c6d41e410, 2022-07-14)"
   width="3840"
   height="323"
   xmlns:inkscape="http://www.inkscape.org/namespaces/inkscape"
   xmlns:sodipodi="http://sodipodi.sourceforge.net/DTD/sodipodi-0.dtd"
   xmlns="http://www.w3.org/2000/svg"
   xmlns:svg="http://www.w3.org/2000/svg">
  <defs
     id="defs8" />
  <sodipodi:namedview
     id="namedview6"
     pagecolor="#ffffff"
     bordercolor="#000000"
     borderopacity="0.25"
     inkscape:showpageshadow="2"
     inkscape:pageopacity="0.0"
     inkscape:pagecheckerboard="0"
     inkscape:deskcolor="#d1d1d1"
     showgrid="false"
     inkscape:zoom="0.59416612"
     inkscape:cx="424.12381"
     inkscape:cy="256.66223"
     inkscape:window-width="1366"
     inkscape:window-height="706"
     inkscape:window-x="-8"
     inkscape:window-y="-8"
     inkscape:window-maximized="1"
     inkscape:current-layer="svg4" />
  <path
     fill="#0099ff"
     fill-opacity="1"
     d="M -0.75844175,27.300507 C 129.92824,23.857179 248.5715,118.59432 334.76345,116.42303 441.13582,110.81399 547.50817,37.994851 653.88052,42.915063 c 106.37236,4.920211 212.74474,89.547857 319.1171,115.428177 106.37238,26.27393 212.74478,-5.21543 319.11708,-41.92021 106.3723,-37.0984 222.2391,-53.835249 328.6116,-48.915037 106.3722,4.920212 203.2502,33.465567 309.6225,43.601217 106.3725,10.52925 212.7448,-20.960114 319.1171,-26.175539 106.3725,-5.609041 212.7447,16.039889 319.1169,0 106.3726,-15.449465 212.7449,-58.047925 319.1172,-73.49739 106.3725,-16.0398908 212.7447,-4.930785 319.1171,10.51868 106.3722,16.03989 212.7449,25.880313 319.1171,41.920204 106.3722,15.449465 212.7448,37.098395 265.931,47.234045 l 53.186,10.52925 V 522.52072 C 2069.4486,586.08885 1061.314,696.27033 -20.196374,532.52045 Z"
     id="path2"
     style="fill:#8b39ef;fill-opacity:1;stroke-width:1.61766"
     sodipodi:nodetypes="ccsccsccccccccccc" />
</svg>
