<?xml version="1.0" encoding="UTF-8" standalone="no"?>
<svg
   viewBox="0 0 1440 320"
   version="1.1"
   id="svg4"
   sodipodi:docname="wave-updark.svg"
   inkscape:version="1.2.1 (9c6d41e410, 2022-07-14)"
   xmlns:inkscape="http://www.inkscape.org/namespaces/inkscape"
   xmlns:sodipodi="http://sodipodi.sourceforge.net/DTD/sodipodi-0.dtd"
   xmlns="http://www.w3.org/2000/svg"
   xmlns:svg="http://www.w3.org/2000/svg">
  <defs
     id="defs8" />
  <sodipodi:namedview
     id="namedview6"
     pagecolor="#ffffff"
     bordercolor="#000000"
     borderopacity="0.25"
     inkscape:showpageshadow="2"
     inkscape:pageopacity="0.0"
     inkscape:pagecheckerboard="0"
     inkscape:deskcolor="#d1d1d1"
     showgrid="false"
     inkscape:zoom="0.84027778"
     inkscape:cx="1450.1157"
     inkscape:cy="162.44628"
     inkscape:window-width="1366"
     inkscape:window-height="706"
     inkscape:window-x="-8"
     inkscape:window-y="-8"
     inkscape:window-maximized="1"
     inkscape:current-layer="svg4" />
  <path
     fill="#0099ff"
     fill-opacity="1"
     d="M0,192L14.1,192C28.2,192,56,192,85,192C112.9,192,141,192,169,170.7C197.6,149,226,107,254,101.3C282.4,96,311,128,339,144C367.1,160,395,160,424,138.7C451.8,117,480,75,508,53.3C536.5,32,565,32,593,64C621.2,96,649,160,678,170.7C705.9,181,734,139,762,122.7C790.6,107,819,117,847,128C875.3,139,904,149,932,165.3C960,181,988,203,1016,224C1044.7,245,1073,267,1101,234.7C1129.4,203,1158,117,1186,74.7C1214.1,32,1242,32,1271,74.7C1298.8,117,1327,203,1355,234.7C1383.5,267,1412,245,1426,234.7L1440,224L1440,320L1425.9,320C1411.8,320,1384,320,1355,320C1327.1,320,1299,320,1271,320C1242.4,320,1214,320,1186,320C1157.6,320,1129,320,1101,320C1072.9,320,1045,320,1016,320C988.2,320,960,320,932,320C903.5,320,875,320,847,320C818.8,320,791,320,762,320C734.1,320,706,320,678,320C649.4,320,621,320,593,320C564.7,320,536,320,508,320C480,320,452,320,424,320C395.3,320,367,320,339,320C310.6,320,282,320,254,320C225.9,320,198,320,169,320C141.2,320,113,320,85,320C56.5,320,28,320,14,320L0,320Z"
     id="path2"
     style="fill:#6d12d9;fill-opacity:1" />
</svg>
